<?xml version="1.0" encoding="UTF-8"?>
<!DOCTYPE svg PUBLIC "-//W3C//DTD SVG 1.1//EN" "http://www.w3.org/Graphics/SVG/1.1/DTD/svg11.dtd">
<svg xmlns="http://www.w3.org/2000/svg" version="1.1" width="180px" height="180px" style="shape-rendering:geometricPrecision; text-rendering:geometricPrecision; image-rendering:optimizeQuality; fill-rule:evenodd; clip-rule:evenodd" xmlns:xlink="http://www.w3.org/1999/xlink">
<g><path style="opacity:1" fill="#fefefe" d="M -0.5,-0.5 C 59.5,-0.5 119.5,-0.5 179.5,-0.5C 179.5,59.5 179.5,119.5 179.5,179.5C 119.5,179.5 59.5,179.5 -0.5,179.5C -0.5,119.5 -0.5,59.5 -0.5,-0.5 Z"/></g>
<g><path style="opacity:1" fill="#923af4" d="M 116.5,34.5 C 106.81,34.1682 97.1437,34.5016 87.5,35.5C 86.0278,38.8054 83.6945,41.3054 80.5,43C 89.676,43.1703 98.676,43.6703 107.5,44.5C 92.4963,44.3334 77.4963,44.5001 62.5,45C 60.8333,45.3333 59.1667,45.6667 57.5,46C 54.3333,47.6888 51.3333,49.5221 48.5,51.5C 45.6257,51.4511 42.7923,51.7844 40,52.5C 38.6244,52.3158 37.7911,51.6491 37.5,50.5C 39.2102,46.4192 41.8768,43.0859 45.5,40.5C 49.4214,38.3707 53.4214,36.5373 57.5,35C 68.1197,33.8954 78.7864,33.3954 89.5,33.5C 98.673,33.5002 107.673,33.8335 116.5,34.5 Z"/></g>
<g><path style="opacity:1" fill="#ac15ef" d="M 116.5,34.5 C 124.305,35.2031 130.972,38.2031 136.5,43.5C 136.414,44.4959 136.748,45.3292 137.5,46C 132.511,46.4993 127.511,46.6659 122.5,46.5C 117.595,45.4282 112.595,44.7615 107.5,44.5C 98.676,43.6703 89.676,43.1703 80.5,43C 83.6945,41.3054 86.0278,38.8054 87.5,35.5C 97.1437,34.5016 106.81,34.1682 116.5,34.5 Z"/></g>
<g><path style="opacity:1" fill="#fefcfd" d="M 107.5,44.5 C 112.595,44.7615 117.595,45.4282 122.5,46.5C 130.045,50.0597 134.045,56.0597 134.5,64.5C 134.5,65.1667 134.5,65.8333 134.5,66.5C 134.5,82.5 134.5,98.5 134.5,114.5C 134.5,115.167 134.5,115.833 134.5,116.5C 133.933,120.967 132.266,124.967 129.5,128.5C 127.733,130.89 125.4,132.557 122.5,133.5C 119.321,134.793 115.988,135.46 112.5,135.5C 109.167,135.5 105.833,135.5 102.5,135.5C 88.8293,135.667 75.1626,135.5 61.5,135C 56.5304,133.849 52.1971,131.682 48.5,128.5C 46.2249,124.333 44.5583,119.999 43.5,115.5C 43.5,112.5 43.5,109.5 43.5,106.5C 43.5,103.167 43.5,99.8333 43.5,96.5C 43.5,93.8333 43.5,91.1667 43.5,88.5C 43.5,85.5 43.5,82.5 43.5,79.5C 43.5,77.1667 43.5,74.8333 43.5,72.5C 43.5,70.5 43.5,68.5 43.5,66.5C 44.1746,61.1428 45.8413,56.1428 48.5,51.5C 51.3333,49.5221 54.3333,47.6888 57.5,46C 59.1667,45.6667 60.8333,45.3333 62.5,45C 77.4963,44.5001 92.4963,44.3334 107.5,44.5 Z"/></g>
<g><path style="opacity:1" fill="#c01be3" d="M 136.5,43.5 C 141.451,47.9867 144.118,53.6534 144.5,60.5C 144.5,61.8333 144.5,63.1667 144.5,64.5C 141.167,64.5 137.833,64.5 134.5,64.5C 134.045,56.0597 130.045,50.0597 122.5,46.5C 127.511,46.6659 132.511,46.4993 137.5,46C 136.748,45.3292 136.414,44.4959 136.5,43.5 Z"/></g>
<g><path style="opacity:1" fill="#c81ed7" d="M 117.5,52.5 C 124.842,53.5226 127.342,57.5226 125,64.5C 120.858,67.9853 116.858,67.652 113,63.5C 112.333,61.1667 112.333,58.8333 113,56.5C 114.667,55.2668 116.167,53.9335 117.5,52.5 Z"/></g>
<g><path style="opacity:1" fill="#b21ed3" d="M 37.5,50.5 C 37.7911,51.6491 38.6244,52.3158 40,52.5C 42.7923,51.7844 45.6257,51.4511 48.5,51.5C 45.8413,56.1428 44.1746,61.1428 43.5,66.5C 40.5,66.5 37.5,66.5 34.5,66.5C 34.5,64.1667 34.5,61.8333 34.5,59.5C 34.883,56.1888 35.883,53.1888 37.5,50.5 Z"/></g>
<g><path style="opacity:1" fill="#d61bc0" d="M 112.5,73.5 C 107.179,72.6711 101.846,71.8378 96.5,71C 86.962,70.632 77.6287,70.4653 68.5,70.5C 79.8786,59.1793 92.5453,57.6793 106.5,66C 109.118,68.1057 111.118,70.6057 112.5,73.5 Z"/></g>
<g><path style="opacity:1" fill="#c91ab9" d="M 34.5,59.5 C 34.5,61.8333 34.5,64.1667 34.5,66.5C 37.5,66.5 40.5,66.5 43.5,66.5C 43.5,68.5 43.5,70.5 43.5,72.5C 40.0613,72.7471 36.728,72.4137 33.5,71.5C 33.1832,67.2984 33.5166,63.2984 34.5,59.5 Z"/></g>
<g><path style="opacity:1" fill="#df1cb3" d="M 68.5,70.5 C 77.6287,70.4653 86.962,70.632 96.5,71C 101.846,71.8378 107.179,72.6711 112.5,73.5C 115.112,75.0522 116.445,77.3855 116.5,80.5C 115.883,80.6107 115.383,80.944 115,81.5C 111.884,80.0931 108.717,78.7598 105.5,77.5C 104.893,77.6236 104.56,77.9569 104.5,78.5C 95.7029,70.144 86.3696,69.4773 76.5,76.5C 72.7016,75.5166 68.7016,75.1832 64.5,75.5C 65.1237,73.246 66.457,71.5794 68.5,70.5 Z"/></g>
<g><path style="opacity:1" fill="#fffbfc" d="M 104.5,78.5 C 107.133,83.0723 108.133,88.0723 107.5,93.5C 107.567,94.9587 107.234,96.2921 106.5,97.5C 104.574,101.097 101.907,104.097 98.5,106.5C 91.1358,109.636 84.1358,108.97 77.5,104.5C 74.3707,101.442 72.3707,97.7755 71.5,93.5C 71.5,90.8333 71.5,88.1667 71.5,85.5C 72.6047,82.1843 74.2713,79.1843 76.5,76.5C 86.3696,69.4773 95.7029,70.144 104.5,78.5 Z"/></g>
<g><path style="opacity:1" fill="#d70e9d" d="M 33.5,71.5 C 36.728,72.4137 40.0613,72.7471 43.5,72.5C 43.5,74.8333 43.5,77.1667 43.5,79.5C 40.1667,79.5 36.8333,79.5 33.5,79.5C 33.5,76.8333 33.5,74.1667 33.5,71.5 Z"/></g>
<g><path style="opacity:1" fill="#d20ac3" d="M 144.5,60.5 C 145.49,66.6446 145.823,72.9779 145.5,79.5C 142.512,81.273 139.179,81.9396 135.5,81.5C 135.821,76.3054 135.487,71.3054 134.5,66.5C 134.5,65.8333 134.5,65.1667 134.5,64.5C 137.833,64.5 141.167,64.5 144.5,64.5C 144.5,63.1667 144.5,61.8333 144.5,60.5 Z"/></g>
<g><path style="opacity:1" fill="#eb229f" d="M 116.5,80.5 C 118.689,86.1356 119.023,91.8023 117.5,97.5C 117.808,95.076 117.474,92.7427 116.5,90.5C 114.085,89.6948 111.751,88.6948 109.5,87.5C 108.831,89.6309 108.165,91.6309 107.5,93.5C 108.133,88.0723 107.133,83.0723 104.5,78.5C 104.56,77.9569 104.893,77.6236 105.5,77.5C 108.717,78.7598 111.884,80.0931 115,81.5C 115.383,80.944 115.883,80.6107 116.5,80.5 Z"/></g>
<g><path style="opacity:1" fill="#ef1894" d="M 64.5,75.5 C 68.7016,75.1832 72.7016,75.5166 76.5,76.5C 74.2713,79.1843 72.6047,82.1843 71.5,85.5C 69.1432,85.6633 66.8098,85.4966 64.5,85C 62.8807,84.7645 61.8807,83.9311 61.5,82.5C 62.0549,79.904 63.0549,77.5707 64.5,75.5 Z"/></g>
<g><path style="opacity:1" fill="#e6177a" d="M 33.5,79.5 C 36.8333,79.5 40.1667,79.5 43.5,79.5C 43.5,82.5 43.5,85.5 43.5,88.5C 40.1667,88.5 36.8333,88.5 33.5,88.5C 33.5,85.5 33.5,82.5 33.5,79.5 Z"/></g>
<g><path style="opacity:1" fill="#f82a78" d="M 61.5,82.5 C 61.8807,83.9311 62.8807,84.7645 64.5,85C 66.8098,85.4966 69.1432,85.6633 71.5,85.5C 71.5,88.1667 71.5,90.8333 71.5,93.5C 70.596,92.791 70.2627,91.791 70.5,90.5C 67.5,90.5 64.5,90.5 61.5,90.5C 61.5,92.5 61.5,94.5 61.5,96.5C 60.1667,91.8333 60.1667,87.1667 61.5,82.5 Z"/></g>
<g><path style="opacity:1" fill="#e93dad" d="M 134.5,66.5 C 135.487,71.3054 135.821,76.3054 135.5,81.5C 139.179,81.9396 142.512,81.273 145.5,79.5C 145.5,84.5 145.5,89.5 145.5,94.5C 144.844,95.2778 144.011,95.9444 143,96.5C 140.272,96.2358 137.939,95.2358 136,93.5C 135.501,99.1569 135.334,104.824 135.5,110.5C 135.768,112.099 135.434,113.432 134.5,114.5C 134.5,98.5 134.5,82.5 134.5,66.5 Z"/></g>
<g><path style="opacity:1" fill="#f4117e" d="M 117.5,97.5 C 116.976,99.3057 116.309,100.972 115.5,102.5C 113.338,99.5795 110.338,97.9129 106.5,97.5C 107.234,96.2921 107.567,94.9587 107.5,93.5C 108.165,91.6309 108.831,89.6309 109.5,87.5C 111.751,88.6948 114.085,89.6948 116.5,90.5C 117.474,92.7427 117.808,95.076 117.5,97.5 Z"/></g>
<g><path style="opacity:1" fill="#f12854" d="M 33.5,88.5 C 36.8333,88.5 40.1667,88.5 43.5,88.5C 43.5,91.1667 43.5,93.8333 43.5,96.5C 40.1667,96.5 36.8333,96.5 33.5,96.5C 33.5,93.8333 33.5,91.1667 33.5,88.5 Z"/></g>
<g><path style="opacity:1" fill="#fc334e" d="M 71.5,93.5 C 72.3707,97.7755 74.3707,101.442 77.5,104.5C 73.4233,104.265 69.4233,103.598 65.5,102.5C 64.7025,102.957 64.3691,103.624 64.5,104.5C 62.9028,102.152 61.9028,99.4855 61.5,96.5C 61.5,94.5 61.5,92.5 61.5,90.5C 64.5,90.5 67.5,90.5 70.5,90.5C 70.2627,91.791 70.596,92.791 71.5,93.5 Z"/></g>
<g><path style="opacity:1" fill="#fc3f32" d="M 33.5,96.5 C 36.8333,96.5 40.1667,96.5 43.5,96.5C 43.5,99.8333 43.5,103.167 43.5,106.5C 40.1667,106.5 36.8333,106.5 33.5,106.5C 33.5,103.167 33.5,99.8333 33.5,96.5 Z"/></g>
<g><path style="opacity:1" fill="#fc3839" d="M 77.5,104.5 C 84.1358,108.97 91.1358,109.636 98.5,106.5C 102.299,107.421 105.632,109.088 108.5,111.5C 106.371,113.95 103.704,115.617 100.5,116.5C 97.5974,114.352 94.2641,112.852 90.5,112C 82.5614,109.853 74.5614,108.019 66.5,106.5C 65.5,106.167 64.8333,105.5 64.5,104.5C 64.3691,103.624 64.7025,102.957 65.5,102.5C 69.4233,103.598 73.4233,104.265 77.5,104.5 Z"/></g>
<g><path style="opacity:1" fill="#fa255a" d="M 106.5,97.5 C 110.338,97.9129 113.338,99.5795 115.5,102.5C 113.889,106.051 111.556,109.051 108.5,111.5C 105.632,109.088 102.299,107.421 98.5,106.5C 101.907,104.097 104.574,101.097 106.5,97.5 Z"/></g>
<g><path style="opacity:1" fill="#f31082" d="M 145.5,94.5 C 145.826,103.017 145.493,111.35 144.5,119.5C 144.5,119.167 144.5,118.833 144.5,118.5C 144.5,116.5 144.5,114.5 144.5,112.5C 141.246,112.793 138.246,112.126 135.5,110.5C 135.334,104.824 135.501,99.1569 136,93.5C 137.939,95.2358 140.272,96.2358 143,96.5C 144.011,95.9444 144.844,95.2778 145.5,94.5 Z"/></g>
<g><path style="opacity:1" fill="#fd5913" d="M 33.5,106.5 C 36.8333,106.5 40.1667,106.5 43.5,106.5C 43.5,109.5 43.5,112.5 43.5,115.5C 40.8127,115.664 38.146,115.497 35.5,115C 34.9011,113.378 34.2344,111.878 33.5,110.5C 33.5,109.167 33.5,107.833 33.5,106.5 Z"/></g>
<g><path style="opacity:1" fill="#fd502c" d="M 66.5,106.5 C 74.5614,108.019 82.5614,109.853 90.5,112C 94.2641,112.852 97.5974,114.352 100.5,116.5C 90.8222,119.754 81.4888,118.921 72.5,114C 69.8823,111.894 67.8823,109.394 66.5,106.5 Z"/></g>
<g><path style="opacity:1" fill="#f81366" d="M 135.5,110.5 C 138.246,112.126 141.246,112.793 144.5,112.5C 144.5,114.5 144.5,116.5 144.5,118.5C 141.097,118.149 137.763,117.482 134.5,116.5C 134.5,115.833 134.5,115.167 134.5,114.5C 135.434,113.432 135.768,112.099 135.5,110.5 Z"/></g>
<g><path style="opacity:1" fill="#fc3051" d="M 134.5,116.5 C 137.763,117.482 141.097,118.149 144.5,118.5C 144.5,118.833 144.5,119.167 144.5,119.5C 144.182,124.47 142.515,128.804 139.5,132.5C 136.68,129.408 133.347,128.075 129.5,128.5C 132.266,124.967 133.933,120.967 134.5,116.5 Z"/></g>
<g><path style="opacity:1" fill="#fe8a12" d="M 33.5,110.5 C 34.2344,111.878 34.9011,113.378 35.5,115C 38.146,115.497 40.8127,115.664 43.5,115.5C 44.5583,119.999 46.2249,124.333 48.5,128.5C 45.1667,129.167 41.8333,129.833 38.5,130.5C 35.1375,124.383 33.4708,117.716 33.5,110.5 Z"/></g>
<g><path style="opacity:1" fill="#fd312d" d="M 139.5,132.5 C 136.71,136.628 133.043,139.628 128.5,141.5C 126.916,138.574 124.916,135.908 122.5,133.5C 125.4,132.557 127.733,130.89 129.5,128.5C 133.347,128.075 136.68,129.408 139.5,132.5 Z"/></g>
<g><path style="opacity:1" fill="#fd5b14" d="M 122.5,133.5 C 124.916,135.908 126.916,138.574 128.5,141.5C 124.902,143.74 120.902,145.074 116.5,145.5C 115.739,142.146 114.072,139.313 111.5,137C 112.056,136.617 112.389,136.117 112.5,135.5C 115.988,135.46 119.321,134.793 122.5,133.5 Z"/></g>
<g><path style="opacity:1" fill="#feb924" d="M 48.5,128.5 C 52.1971,131.682 56.5304,133.849 61.5,135C 75.1626,135.5 88.8293,135.667 102.5,135.5C 99.023,136.323 95.3563,136.823 91.5,137C 97.8507,144.812 106.184,147.646 116.5,145.5C 97.8333,146.833 79.1667,146.833 60.5,145.5C 70.1724,145.666 79.8391,145.5 89.5,145C 82.6793,138.792 74.6793,136.792 65.5,139C 61.3791,140.229 57.3791,141.729 53.5,143.5C 46.9506,140.95 41.9506,136.617 38.5,130.5C 41.8333,129.833 45.1667,129.167 48.5,128.5 Z"/></g>
<g><path style="opacity:1" fill="#fe8d0a" d="M 102.5,135.5 C 105.833,135.5 109.167,135.5 112.5,135.5C 112.389,136.117 112.056,136.617 111.5,137C 114.072,139.313 115.739,142.146 116.5,145.5C 106.184,147.646 97.8507,144.812 91.5,137C 95.3563,136.823 99.023,136.323 102.5,135.5 Z"/></g>
<g><path style="opacity:1" fill="#fec906" d="M 60.5,145.5 C 57.9327,145.279 55.5994,144.612 53.5,143.5C 57.3791,141.729 61.3791,140.229 65.5,139C 74.6793,136.792 82.6793,138.792 89.5,145C 79.8391,145.5 70.1724,145.666 60.5,145.5 Z"/></g>
</svg>
